<?xml version="1.0" standalone="no"?>
<!DOCTYPE svg PUBLIC "-//W3C//DTD SVG 20010904//EN"
 "http://www.w3.org/TR/2001/REC-SVG-20010904/DTD/svg10.dtd">
<svg version="1.0" xmlns="http://www.w3.org/2000/svg"
 width="474.000000pt" height="474.000000pt" viewBox="0 0 474.000000 474.000000"
 preserveAspectRatio="xMidYMid meet">
<metadata>
Created by potrace 1.14, written by Peter Selinger 2001-2017
</metadata>
<g transform="translate(0.000000,474.000000) scale(0.100000,-0.100000)"
fill="#000000" stroke="none">
<path d="M2100 4732 c0 -4 -42 -13 -93 -20 -212 -29 -459 -107 -682 -217 -546
-269 -950 -711 -1170 -1279 -66 -171 -135 -444 -135 -534 0 -20 -4 -31 -10
-27 -7 4 -10 -93 -10 -284 0 -187 4 -291 10 -291 6 0 10 -12 10 -26 0 -90 96
-453 151 -572 16 -35 29 -66 29 -68 0 -3 25 -55 55 -115 261 -518 726 -937
1270 -1142 179 -67 456 -137 546 -137 21 0 39 -4 39 -10 0 -6 93 -10 260 -10
143 0 260 4 260 8 0 5 42 14 93 20 375 47 813 239 1137 499 106 85 278 258
365 366 230 287 391 634 471 1016 13 64 24 131 24 149 0 17 5 32 10 32 6 0 10
102 10 285 0 157 -4 285 -9 285 -4 0 -11 24 -14 53 -3 28 -17 105 -32 170
-136 604 -490 1119 -1005 1462 -279 185 -641 324 -955 366 -52 8 -95 17 -95
21 0 4 -119 8 -265 8 -146 0 -265 -4 -265 -8z m472 -182 c157 -15 469 -81 468
-99 -1 -3 -27 -26 -59 -51 -230 -177 -211 -151 -186 -255 8 -33 14 -65 15 -71
0 -7 -49 -13 -141 -18 l-142 -6 -86 -68 c-47 -38 -138 -108 -201 -157 -63 -48
-118 -91 -122 -94 -13 -12 -169 -563 -164 -577 3 -8 50 -71 105 -141 126 -160
592 -759 680 -873 36 -47 122 -157 191 -245 69 -88 136 -175 148 -192 l23 -33
152 1 c84 1 218 4 299 8 l148 6 207 160 c230 178 525 407 592 460 24 19 48 35
54 35 6 0 8 -37 3 -107 -35 -547 -267 -1051 -657 -1428 -98 -95 -254 -220
-345 -278 -478 -301 -1047 -411 -1588 -307 -54 11 -102 22 -105 26 -3 3 8 15
24 27 16 12 93 72 170 133 77 60 273 213 435 339 162 125 298 231 302 234 4 3
43 132 87 286 l81 279 -32 46 c-17 25 -35 47 -38 50 -3 3 -34 41 -67 85 -71
93 -467 603 -486 625 -7 8 -40 51 -74 95 -34 44 -80 103 -101 130 -111 141
-211 270 -280 363 l-77 103 -279 -7 c-153 -3 -291 -10 -306 -14 -15 -4 -78
-48 -140 -96 -62 -49 -136 -107 -165 -129 -97 -73 -539 -417 -625 -487 -47
-37 -91 -68 -99 -68 -22 0 -9 341 19 500 62 350 201 672 413 954 80 107 320
345 429 426 435 325 986 481 1520 430z m902 -290 c168 -100 293 -197 437 -340
138 -136 203 -215 297 -359 141 -215 257 -493 307 -739 28 -140 22 -140 -89 4
-186 240 -286 364 -295 364 -5 0 -16 -6 -23 -13 -7 -7 -113 -90 -236 -185
-186 -145 -221 -176 -213 -190 5 -9 50 -68 100 -131 50 -63 91 -117 91 -121 0
-4 -34 -33 -76 -66 -42 -32 -88 -69 -102 -82 -44 -37 -105 -55 -169 -50 -70 5
-115 32 -171 104 -21 27 -92 118 -158 203 -65 84 -172 222 -237 305 -65 83
-145 186 -178 229 -33 42 -65 77 -72 78 -7 0 -52 0 -102 -1 l-90 -1 31 23 c18
13 63 48 100 79 115 93 346 270 359 275 7 3 57 -53 116 -130 57 -75 111 -136
119 -136 17 0 429 316 436 335 5 11 -33 83 -228 435 -107 193 -101 180 -85
180 7 0 66 -31 131 -70z m-1987 -1931 c44 -21 46 -23 319 -374 47 -60 136
-174 197 -253 188 -241 191 -246 195 -322 5 -98 -18 -134 -157 -242 -62 -48
-116 -88 -121 -88 -8 0 -60 64 -266 329 -65 85 -156 202 -201 260 -46 58 -125
160 -175 225 -51 66 -106 134 -122 153 l-28 33 -95 0 c-60 0 -92 4 -88 10 14
22 335 267 368 280 41 17 128 11 174 -11z m-865 -702 c25 -34 99 -129 164
-212 65 -82 144 -184 175 -225 32 -41 82 -105 111 -142 29 -37 73 -93 98 -125
25 -32 110 -141 189 -243 224 -286 282 -363 278 -366 -14 -14 -249 94 -393
179 -288 171 -580 461 -751 747 -107 179 -214 427 -190 442 6 4 70 8 142 8
l130 0 47 -63z"/>
<path d="M1130 3992 c0 -4 4 -12 9 -17 4 -6 18 -73 31 -150 l22 -140 -111
-109 c-61 -61 -111 -113 -111 -116 0 -4 69 -16 153 -29 83 -12 155 -26 159
-29 3 -4 38 -70 76 -147 l69 -140 73 145 c40 80 73 146 74 146 0 1 71 12 156
24 85 12 157 24 160 27 3 3 -46 53 -108 111 -130 124 -123 101 -88 297 13 72
23 132 21 133 -2 2 -67 -29 -144 -70 l-141 -73 -139 73 c-136 70 -161 80 -161
64z"/>
<path d="M3162 1313 l29 -158 -118 -115 -118 -114 50 -7 c28 -4 101 -15 163
-24 l113 -17 71 -145 c39 -79 72 -143 73 -141 2 2 35 67 73 144 l70 141 104
16 c57 9 127 19 156 23 28 4 52 10 52 15 0 5 -50 57 -111 116 l-110 108 27
153 c14 84 24 155 22 158 -3 2 -68 -28 -145 -68 l-140 -73 -49 27 c-127 68
-226 118 -233 118 -4 0 5 -71 21 -157z"/>
</g>
</svg>
